<svg width="20" height="20" viewBox="0 0 20 20" fill="none" xmlns="http://www.w3.org/2000/svg">
<g clip-path="url(#clip0_190_1172)">
<path fill-rule="evenodd" clip-rule="evenodd" d="M11.906 1.25454C12.9213 0.239177 14.5675 0.239175 15.5829 1.25454L18.7455 4.41712C19.7609 5.43248 19.7609 7.07871 18.7455 8.09407L15.9573 10.8822C14.942 11.8976 13.2958 11.8976 12.2804 10.8822L12.1969 10.7987C11.9625 10.5644 11.9625 10.1845 12.1969 9.95015C12.4312 9.71584 12.8111 9.71584 13.0454 9.95015L13.1289 10.0337C13.6757 10.5804 14.5621 10.5804 15.1088 10.0337L17.897 7.24555C18.4437 6.69881 18.4437 5.81238 17.897 5.26565L14.7344 2.10307C14.1876 1.55633 13.3012 1.55633 12.7545 2.10307L9.96634 4.89121C9.4196 5.43794 9.4196 6.32437 9.96634 6.87111L10.0499 6.95465C10.2842 7.18896 10.2842 7.56886 10.0499 7.80317C9.81556 8.03749 9.43566 8.03749 9.20135 7.80318L9.11781 7.71964C8.10245 6.70427 8.10245 5.05804 9.11781 4.04268L11.906 1.25454ZM8.09405 18.7454C7.07869 19.7608 5.43246 19.7608 4.4171 18.7454L1.25452 15.5828C0.239153 14.5675 0.239154 12.9212 1.25452 11.9059L4.04266 9.11774C5.05802 8.10238 6.70425 8.10238 7.71961 9.11774L7.80315 9.20128C8.03747 9.43559 8.03747 9.81549 7.80315 10.0498C7.56884 10.2841 7.18894 10.2841 6.95463 10.0498L6.87109 9.96627C6.32435 9.41954 5.43792 9.41954 4.89119 9.96627L2.10304 12.7544C1.55631 13.3011 1.55631 14.1876 2.10305 14.7343L5.26563 17.8969C5.81236 18.4436 6.69879 18.4436 7.24553 17.8969L10.0337 15.1087C10.5804 14.562 10.5804 13.6756 10.0337 13.1288L9.95013 13.0453C9.71581 12.811 9.71581 12.4311 9.95013 12.1968C10.1844 11.9625 10.5643 11.9625 10.7987 12.1968L10.8822 12.2803C11.8976 13.2957 11.8976 14.9419 10.8822 15.9573L8.09405 18.7454ZM14.1687 6.67991C14.403 6.4456 14.403 6.0657 14.1687 5.83138C13.9344 5.59707 13.5545 5.59707 13.3202 5.83138L5.83141 13.3201C5.59709 13.5545 5.59709 13.9344 5.8314 14.1687C6.06572 14.403 6.44562 14.403 6.67993 14.1687L14.1687 6.67991Z" fill="#CED3DB"/>
</g>
<defs>
<clipPath id="clip0_190_1172">
<rect width="20" height="20" fill="white"/>
</clipPath>
</defs>
</svg>
